<?xml version="1.0" encoding="UTF-8" standalone="no"?>
<!-- Created with Inkscape (http://www.inkscape.org/) -->

<svg
   width="32"
   height="32"
   viewBox="0 0 32 32"
   version="1.1"
   id="svg1"
   inkscape:version="1.4.4 (dcaf3e7, 2026-05-05)"
   sodipodi:docname="0_SuperLayer_panel.svg"
   xml:space="preserve"
   inkscape:export-batch-name=""
   inkscape:export-batch-path="C:\Users\tesla\AppData\Roaming\QGIS\QGIS3\profiles\ForTest\python\plugins\SuperLayer\icons_panel"
   xmlns:inkscape="http://www.inkscape.org/namespaces/inkscape"
   xmlns:sodipodi="http://sodipodi.sourceforge.net/DTD/sodipodi-0.dtd"
   xmlns="http://www.w3.org/2000/svg"
   xmlns:svg="http://www.w3.org/2000/svg"><sodipodi:namedview
     id="namedview1"
     pagecolor="#ffffff"
     bordercolor="#000000"
     borderopacity="0.25"
     inkscape:showpageshadow="2"
     inkscape:pageopacity="0.0"
     inkscape:pagecheckerboard="true"
     inkscape:deskcolor="#d1d1d1"
     inkscape:document-units="px"
     inkscape:zoom="5.6568543"
     inkscape:cx="955.47804"
     inkscape:cy="0.61871843"
     inkscape:window-width="1920"
     inkscape:window-height="1001"
     inkscape:window-x="-9"
     inkscape:window-y="41"
     inkscape:window-maximized="1"
     inkscape:current-layer="layer15"
     showgrid="false"
     showguides="true"><inkscape:grid
       id="grid30"
       units="px"
       originx="-252"
       originy="72.75"
       spacingx="1"
       spacingy="1"
       empcolor="#0099e5"
       empopacity="0.30196078"
       color="#0099e5"
       opacity="0.14901961"
       empspacing="5"
       enabled="true"
       visible="false" /><inkscape:page
       x="0"
       y="0"
       width="32"
       height="32"
       id="page25"
       margin="0"
       bleed="0"
       inkscape:label="Document_Temporary" /></sodipodi:namedview><defs
     id="defs1" /><g
     inkscape:label="图层 1"
     inkscape:groupmode="layer"
     id="layer1"
     transform="translate(-252,72.75)"><g
       id="g3-5"
       transform="matrix(0.02392132,0,0,0.02392132,254.44371,-69.066799)"
       style="stroke-width:8.16478"><path
         d="M 60.25582,1004.2861 A 39.382889,39.382889 0 0 1 20.872931,967.26619 V 56.733808 A 39.382889,39.382889 0 0 1 60.25582,19.713893 h 270.95427 a 30.324824,30.324824 0 0 1 26.38654,14.965497 l 36.23226,70.10154 a 54.742215,54.742215 0 0 0 48.44095,28.74951 h 521.42944 a 39.382889,39.382889 0 0 1 39.38292,37.01992 v 796.71583 a 39.382889,39.382889 0 0 1 -39.38292,37.01991 z"
         p-id="5336"
         id="path1-09-2"
         style="fill:#ffd9ab;fill-opacity:1;stroke:#ff8c00;stroke-width:41.8037;stroke-dasharray:none;stroke-dashoffset:0;stroke-opacity:1" /><path
         d="M 71.676857,1004.2861 A 36.626086,36.626086 0 0 1 42.53352,990.10827 35.838429,35.838429 0 0 1 35.4446,958.60196 l 144.14137,-625.7941 a 37.019915,37.019915 0 0 1 36.23226,-28.74951 h 905.80647 a 36.626086,36.626086 0 0 1 29.1433,14.17784 39.382889,39.382889 0 0 1 7.0889,31.50631 L 1014.897,975.5366 a 37.019915,37.019915 0 0 1 -36.23222,28.7495 z"
         p-id="5338"
         id="path3-82-6"
         style="fill:#ffd8a9;fill-opacity:0.766667;stroke:#ff8c00;stroke-width:41.8037;stroke-dasharray:none;stroke-dashoffset:0;stroke-opacity:1" /></g></g><g
     inkscape:groupmode="layer"
     id="layer5"
     inkscape:label="Memory"
     transform="translate(-252,72.75)"><g
       id="g30"
       transform="translate(0,0.625)"><path
         style="fill:none;fill-opacity:1;fill-rule:evenodd;stroke:#9c7345;stroke-width:1;stroke-linecap:round;stroke-linejoin:round;stroke-dasharray:none;stroke-dashoffset:0;stroke-opacity:1;paint-order:fill markers stroke"
         d="m 264.14858,-58.760835 v 10.032078"
         id="path26" /><path
         style="fill:none;fill-opacity:1;fill-rule:evenodd;stroke:#9c7345;stroke-width:1;stroke-linecap:round;stroke-linejoin:round;stroke-dasharray:none;stroke-dashoffset:0;stroke-opacity:1;paint-order:fill markers stroke"
         d="m 266.59399,-58.760835 v 10.032078"
         id="path27" /><path
         style="fill:none;fill-opacity:1;fill-rule:evenodd;stroke:#9c7345;stroke-width:1;stroke-linecap:round;stroke-linejoin:round;stroke-dasharray:none;stroke-dashoffset:0;stroke-opacity:1;paint-order:fill markers stroke"
         d="m 269.0394,-58.760835 v 10.032078"
         id="path29" /><path
         style="fill:none;fill-opacity:1;fill-rule:evenodd;stroke:#9c7345;stroke-width:1;stroke-linecap:round;stroke-linejoin:round;stroke-dasharray:none;stroke-dashoffset:0;stroke-opacity:1;paint-order:fill markers stroke"
         d="m 271.48481,-58.760835 v 10.032078"
         id="path30" /><rect
         style="fill:#6f5131;fill-opacity:1;fill-rule:evenodd;stroke:none;stroke-width:1;stroke-linejoin:round;stroke-dasharray:none;stroke-dashoffset:0;stroke-opacity:1;paint-order:fill markers stroke"
         id="rect25"
         width="11.402097"
         height="6.4570303"
         x="262.10007"
         y="-56.973312"
         ry="0.51425946" /></g></g></svg>
